<svg width="33" height="33" viewBox="0 0 33 33" fill="none" xmlns="http://www.w3.org/2000/svg">
<path d="M18.3829 0.207841C17.9856 0.51625 17.6226 0.710682 17.1363 0.864886C16.0199 1.23364 14.9857 1.34761 12.8214 1.34761C10.9105 1.34761 10.7804 1.36773 10.5817 1.74318C10.4516 1.99125 10.4516 2.16557 10.5886 2.42034C10.7667 2.76227 11.0132 2.81591 12.4105 2.81591C15.3076 2.81591 16.8692 2.56784 18.2459 1.89739C18.4993 1.77 18.7185 1.67614 18.7253 1.68955C18.739 1.70295 18.8691 1.89068 19.0267 2.11864C20.3006 3.9758 22.6635 5.19602 25.7182 5.56477C26.3552 5.64523 28.8825 5.67205 29.1085 5.5983C29.2318 5.55807 29.2318 5.57818 29.1017 6.06761C28.7661 7.34148 28.677 8.86341 28.8688 9.93614C28.9784 10.5664 29.2935 11.4983 29.588 12.0749C29.8756 12.6314 30.5537 13.5901 30.992 14.0661L31.3824 14.4818L31.0742 15.1053C30.7044 15.8361 30.4441 16.6206 30.3003 17.4586C30.1428 18.3235 30.2044 20.355 30.403 21.2735C30.6016 22.1518 30.9372 23.1307 31.1153 23.3117C31.4509 23.6738 32.1495 23.5195 32.3071 23.0502C32.3824 22.8223 32.3687 22.7351 32.1564 22.1116C31.7934 21.0255 31.7043 20.5159 31.6633 19.2756C31.6359 18.2766 31.6496 18.0486 31.7797 17.4318C31.9509 16.6139 32.2728 15.7892 32.6632 15.1724C33.1632 14.3947 33.1427 14.2807 32.355 13.4627C31.3687 12.4436 30.7455 11.391 30.3962 10.1373C30.2729 9.71489 30.2523 9.41989 30.2455 8.51477C30.2386 7.32136 30.3071 6.87886 30.6907 5.61841C30.9167 4.88091 30.9372 4.61943 30.7866 4.39818C30.5879 4.10989 30.3482 4.06296 29.6017 4.16352C28.5949 4.30432 26.1703 4.28421 25.3073 4.13C22.5197 3.63386 20.6842 2.47398 19.7321 0.623522C19.4856 0.134091 19.3143 -4.00141e-07 18.9308 -4.00141e-07C18.7185 -4.00141e-07 18.5815 0.053636 18.3829 0.207841Z" fill="white"/>
<path d="M15.2735 4.85407C15.1022 4.8943 14.842 4.99487 14.6981 5.06862C14.4242 5.20271 12.4037 6.71123 12.3969 6.77828C12.3969 6.79839 12.6229 6.85203 12.8968 6.89896C13.7667 7.05317 14.0406 7.20067 16.0406 8.67567C17.9241 10.0568 17.9378 10.0702 18.0953 9.94953C18.383 9.74169 18.7665 9.22544 18.9172 8.84998C19.1432 8.29351 19.1706 7.31464 18.972 6.73805C18.6569 5.80612 17.8145 5.04851 16.8488 4.83396C16.4378 4.7401 15.657 4.7468 15.2735 4.85407Z" fill="white"/>
<path d="M20.4788 7.63651C20.4788 8.60867 20.0199 9.79538 19.383 10.4792C19.1912 10.6804 19.0405 10.8614 19.0405 10.8882C19.0405 10.9083 19.3145 11.1363 19.6569 11.3978C20.4172 11.9878 20.924 12.5375 21.0679 12.9331C21.1295 13.1007 21.198 13.2952 21.2185 13.3555C21.2596 13.4561 21.3555 13.4091 21.8144 13.0538C22.5336 12.4906 22.8486 12.142 23.102 11.6056C23.2801 11.2369 23.3212 11.0625 23.3418 10.5463C23.3623 10.1842 23.3349 9.78867 23.287 9.60765C22.9856 8.40754 22.013 7.55606 20.7391 7.34151L20.4788 7.30129V7.63651Z" fill="white"/>
<path d="M8.18467 7.89125C7.17785 7.965 6.34911 8.18625 5.98611 8.46114C5.41078 8.91034 4.54095 10.4122 3.3629 13.0202C2.58896 14.7098 2.43143 15.3065 2.05473 17.8676C1.47255 21.8032 1.1027 23.1106 0.308209 24.0559C0.0547927 24.3509 0 24.4716 0 24.6861C0 24.8336 0.0479437 25.0348 0.109585 25.1286C0.198624 25.2761 8.25316 32.0008 9.25312 32.7718C9.71201 33.1205 9.97913 33.0802 10.6914 32.5774C11.5887 31.9405 12.5818 31.5047 14.0749 31.0823C15.8693 30.5794 16.4652 30.3649 17.5337 29.8419C20.1706 28.5547 23.102 26.3355 24.6293 24.4716C25.1567 23.828 25.5129 23.3385 25.4718 23.305C25.4581 23.2916 24.8143 23.7609 24.0403 24.3442C22.1705 25.7723 21.6294 26.0203 20.3418 26.0203C19.1158 26.0203 18.1843 25.6382 17.2871 24.7733C16.4173 23.9352 16.0269 23.0167 16.0269 21.83V21.2266L15.4653 20.6835C14.8283 20.0801 14.4584 19.5102 14.2256 18.8063C13.9995 18.1023 14.0132 16.9156 14.2598 16.2451L14.431 15.7691L14.1639 15.5076C14.0132 15.3668 13.7872 15.112 13.6502 14.9377C13.4311 14.6561 13.1297 14.4818 13.027 14.5757C13.0064 14.5958 13.0681 14.8774 13.1708 15.1992C13.4653 16.1982 13.5749 16.8217 13.6091 17.8341C13.6708 19.4298 13.4448 20.5561 12.8078 21.8233C12.4311 22.5742 11.7462 23.5128 11.4654 23.6536C11.0681 23.8548 10.5271 23.5195 10.5271 23.077C10.5271 22.943 10.6435 22.7284 10.8832 22.42C11.3489 21.8099 11.8832 20.7506 12.0613 20.0801C12.2599 19.3024 12.3352 18.29 12.253 17.4586C12.164 16.4999 12.0339 15.9367 11.6983 14.9713C11.2873 13.798 11.2805 13.798 10.4312 15.1724C9.89009 16.0507 9.72571 16.2585 9.54079 16.3323C9.34901 16.4127 9.28052 16.4127 9.0819 16.3323C8.80108 16.2183 8.60246 15.8831 8.65725 15.6484C8.7189 15.4138 10.1915 13.0672 10.3901 12.8861C10.486 12.8057 10.6435 12.7386 10.7599 12.7386C10.8764 12.7386 11.664 12.8928 12.5133 13.0873L14.0543 13.4359L14.3078 13.7376C15.6228 15.3668 17.109 15.9032 18.4515 15.2394C19.246 14.8506 19.8624 14.1466 19.8624 13.6303C19.8624 13.2415 19.6706 13.0403 18.2186 11.9408C15.0269 9.52046 13.479 8.4075 13.1708 8.30693C12.2393 7.99182 9.65037 7.77057 8.18467 7.89125Z" fill="white"/>
<path d="M24.191 12.3431C23.8554 13.0202 23.3417 13.5231 21.6294 14.817C20.0678 16.0038 19.9308 16.0909 19.3555 16.292C19.1637 16.3591 18.8076 16.4999 18.561 16.6005C18.1501 16.7815 18.0542 16.7949 17.2939 16.7882C16.6227 16.7882 16.3967 16.7614 16.068 16.6407C15.8419 16.5602 15.6433 16.4932 15.6159 16.4932C15.5406 16.4932 15.4858 16.6474 15.4104 17.1368C15.1776 18.5515 16.0885 19.9728 17.4789 20.3885C18.1775 20.5964 18.9857 20.5494 19.5884 20.2678C20.0678 20.0533 24.1978 16.9558 24.8485 16.339C25.506 15.7088 25.8348 14.7165 25.6909 13.8047C25.5882 13.208 25.2115 12.4772 24.8142 12.1419C24.643 11.9877 24.4786 11.867 24.4581 11.8738C24.4375 11.8738 24.3143 12.0883 24.191 12.3431Z" fill="white"/>
<path d="M26.3347 16.6004C26.1977 16.8083 25.9511 17.1033 25.7936 17.2575C25.4237 17.6195 21.0335 20.9718 20.5609 21.2534C19.8006 21.7093 18.6363 21.9372 17.8144 21.7897C17.5815 21.7495 17.3624 21.7294 17.3418 21.7495C17.2596 21.8367 17.4856 22.7686 17.6774 23.1508C18.4103 24.5721 20.2938 25.1554 21.7663 24.4112C22.2595 24.1632 26.8004 20.6232 27.0744 20.2745C27.8483 19.2755 27.8689 17.767 27.1223 16.7412C26.6977 16.1646 26.6429 16.1579 26.3347 16.6004Z" fill="white"/>
</svg>
