<svg width="20" height="20" viewBox="0 0 20 20" fill="none" xmlns="http://www.w3.org/2000/svg">
<path d="M0.271946 17.2913L4.1661 13.3971C4.34186 13.2214 4.58012 13.1237 4.8301 13.1237H5.46675C4.38873 11.7449 3.74817 10.0107 3.74817 8.12421C3.74817 3.63636 7.38453 0 11.8724 0C16.3602 0 19.9966 3.63636 19.9966 8.12421C19.9966 12.612 16.3602 16.2484 11.8724 16.2484C9.98584 16.2484 8.25164 15.6079 6.87286 14.5298V15.1665C6.87286 15.4165 6.77522 15.6547 6.59945 15.8305L2.7053 19.7246C2.33815 20.0918 1.74446 20.0918 1.38121 19.7246L0.275852 18.6193C-0.0912996 18.2521 -0.0912998 17.6584 0.271946 17.2913ZM11.8724 13.1237C14.6338 13.1237 16.8719 10.8896 16.8719 8.12421C16.8719 5.36276 14.6377 3.12469 11.8724 3.12469C9.11093 3.12469 6.87286 5.35885 6.87286 8.12421C6.87286 10.8857 9.10702 13.1237 11.8724 13.1237Z" fill="white"/>
</svg>
