<svg width="40" height="40" viewBox="0 0 40 40" fill="none" xmlns="http://www.w3.org/2000/svg">
<circle cx="20" cy="20" r="20" fill="#2A2A2A"/>
<path d="M19.8571 20C23.9152 20 27.2041 16.6426 27.2041 12.5C27.2041 8.35742 23.9152 5 19.8571 5C15.7991 5 12.5102 8.35742 12.5102 12.5C12.5102 16.6426 15.7991 20 19.8571 20ZM25 21.875H24.0415C22.7672 22.4727 21.3495 22.8125 19.8571 22.8125C18.3648 22.8125 16.9528 22.4727 15.6728 21.875H14.7143C10.4554 21.875 7 25.4023 7 29.75V32.1875C7 33.7402 8.23406 35 9.7551 35H29.9592C31.4802 35 32.7143 33.7402 32.7143 32.1875V29.75C32.7143 25.4023 29.2589 21.875 25 21.875Z" fill="white"/>
</svg>
